<?xml version="1.0" encoding="UTF-8" standalone="no"?>
<svg
   xmlns:dc="http://purl.org/dc/elements/1.1/"
   xmlns:cc="http://creativecommons.org/ns#"
   xmlns:rdf="http://www.w3.org/1999/02/22-rdf-syntax-ns#"
   xmlns:svg="http://www.w3.org/2000/svg"
   xmlns="http://www.w3.org/2000/svg"
   xmlns:sodipodi="http://sodipodi.sourceforge.net/DTD/sodipodi-0.dtd"
   xmlns:inkscape="http://www.inkscape.org/namespaces/inkscape"
   viewBox="0 0 362.734 411.38"
   id="svg3424"
   version="1.1"
   inkscape:version="0.48.3.1 r9886"
   width="100%"
   height="100%"
   sodipodi:docname="css3.svg">
  <metadata
     id="metadata3434">
    <rdf:RDF>
      <cc:Work
         rdf:about="">
        <dc:format>image/svg+xml</dc:format>
        <dc:type
           rdf:resource="http://purl.org/dc/dcmitype/StillImage" />
        <dc:title>HTML5 CSS Styling Logo</dc:title>
      </cc:Work>
    </rdf:RDF>
  </metadata>
  <defs
     id="defs3432">
    <clipPath
       clipPathUnits="userSpaceOnUse"
       id="clipPath4773">
      <polygon
         points="376.03,447.246 404.27,130.894 256,130.894 256,480.523 "
         id="polygon4775"
         style="fill:#3771c8"
         transform="translate(-150.67674,-167.8941)" />
    </clipPath>
  </defs>
  <sodipodi:namedview
     pagecolor="#ffffff"
     bordercolor="#666666"
     borderopacity="1"
     objecttolerance="10"
     gridtolerance="10"
     guidetolerance="10"
     inkscape:pageopacity="0"
     inkscape:pageshadow="2"
     inkscape:window-width="1366"
     inkscape:window-height="744"
     id="namedview3430"
     showgrid="false"
     inkscape:zoom="0.8364772"
     inkscape:cx="326.87625"
     inkscape:cy="248.5371"
     inkscape:window-x="0"
     inkscape:window-y="24"
     inkscape:window-maximized="1"
     inkscape:current-layer="svg3424"
     fit-margin-top="0"
     fit-margin-left="0"
     fit-margin-right="0"
     fit-margin-bottom="0" />
  <title
     id="title3426">HTML5 CSS Styling Logo</title>
  <polygon
     points="437.367,100.62 404.321,470.819 255.778,512 107.644,470.877 74.633,100.62 "
     id="polygon6"
     style="fill:#2c5aa0"
     transform="translate(-74.633,-100.62)" />
  <polygon
     points="256,480.523 376.03,447.246 404.27,130.894 256,130.894 "
     id="polygon8"
     style="fill:#3771c8"
     transform="translate(-74.633,-100.62)" />
  <path
     d="m 88.520412,67.2741 0.138478,48.52944 150.6,0 0.16944,31.34739 -150.699992,0 0.238478,48.52943 150.599994,0 0.19795,55.34979 -56.60478,26.36329 -56.69523,-26.36329 -0.12848,-24.00239 -37.000004,0 0.246172,58.23532 93.784632,43.67649 93.51537,-43.67649 -0.31001,-87.61531 -0.0302,-17.57552 -0.42182,-112.79815 z"
     id="path3428"
     inkscape:connector-curvature="0"
     style="fill:#ebebeb;fill-opacity:1" />
  <path
     d="m 12.476672,0 0.138478,48.529436 150.6,0 0.16944,31.347392 -150.699992,0 0.238478,48.529432 150.599994,0 0.19795,55.34979 -56.60478,26.36329 -56.695225,-26.36329 -0.128489,-24.00239 -37,0 0.246172,58.23532 93.784632,43.67649 93.51537,-43.67649 -0.31001,-87.61531 -0.0302,-17.57552 L 200.07667,0 z"
     id="path3428-5"
     inkscape:connector-curvature="0"
     style="fill:#ffffff;fill-opacity:1"
     clip-path="url(#clipPath4773)"
     transform="translate(76.04374,67.2741)" />
</svg>
